<svg xmlns="http://www.w3.org/2000/svg" viewBox="0 0 32 32" id="Taxi--Streamline-Emojitwo" height="32" width="32">
  <desc>
    Taxi Streamline Emoji: https://streamlinehq.com
  </desc>
  <title>taxi</title>
  <path fill="#ffe62e" d="m29.69385 15.79165 -2.7701 -0.83625c-0.57495 -0.1568 -1.0976 -0.73175 -1.20215 -1.20215l-1.14985 -4.75625c-0.10455 -0.52265 -0.6795 -0.9408 -1.3067 -0.9408h-9.5125c-0.57495 0 -1.2544 0.52265 -1.51575 0.9408l-2.77015 4.80855c-0.2613 0.4704 -0.9408 0.99305 -1.46345 1.14985l-4.33815 1.30665c-0.5749 0.1568 -1.14985 0.9408 -1.30665 1.4112l0.3136 0.99305 -0.83625 0.9408 -0.5227 1.9339h29.3739v-4.33815c0 -0.52265 -0.4704 -1.2544 -0.9931 -1.4112" stroke-width="0.5"></path>
  <path fill="#b2c1c0" d="M31.68 22.69085c0 -0.73175 -0.26135 -1.14985 -0.784 -1.14985H1.104c-0.52265 0 -0.784 0.41815 -0.784 1.14985 0 0.1568 0.05225 1.04535 0.10455 1.20215 0.1045 0.6272 0.6272 0.57495 1.2021 0.57495h28.79895c0.52265 0 1.04535 0.05225 1.20215 -0.57495 0 -0.1568 0.05225 -1.04535 0.05225 -1.20215" stroke-width="0.5"></path>
  <g fill="#3e4347">
    <path d="M17.98615 13.75325c0 0.3136 0.20905 0.52265 0.4704 0.52265h4.0245c0.26135 0 0.41815 -0.20905 0.3659 -0.52265l-0.6795 -3.7632c-0.05225 -0.3136 -0.3136 -0.52265 -0.5749 -0.52265h-3.136c-0.26135 0 -0.4704 0.26135 -0.4704 0.52265v3.7632m-0.9931 -3.71095c0 -0.3136 -0.20905 -0.52265 -0.4704 -0.52265h-2.6656c-0.2613 0 -0.5749 0.20905 -0.7317 0.4704l-1.98615 3.86775c-0.10455 0.26135 0 0.4704 0.26135 0.4704h5.06985c0.26135 0 0.4704 -0.26135 0.4704 -0.52265v-3.7632Z" stroke-width="0.5"></path>
  </g>
  <path fill="#ffffff" d="M1.83575 19.6071h1.46345c0.26135 0 0.52265 -0.20905 0.57495 -0.4704l0.3136 -0.9408c0.1045 -0.2613 -0.0523 -0.4704 -0.26135 -0.4704h-1.568l-0.52265 1.8816" stroke-width="0.5"></path>
  <path fill="#f15744" d="M30.68695 17.67325h-1.20215c-0.20905 0 -0.41815 0.20905 -0.4704 0.4704 0 0 -0.20905 0.73175 -0.26135 0.9408 -0.05225 0.26135 0.0523 0.4704 0.2091 0.4704h1.7248v-1.8816" stroke-width="0.5"></path>
  <g fill="#3e4347">
    <path d="M12.34135 17.9346c0 0.1568 -0.10455 0.26135 -0.26135 0.26135h-0.99305c-0.1568 0 -0.26135 -0.10455 -0.26135 -0.26135v-0.9408c0 -0.1568 0.10455 -0.26135 0.26135 -0.26135H12.08c0.1568 0 0.26135 0.10455 0.26135 0.26135v0.9408m1.46345 1.46345c0 0.1568 -0.10455 0.26135 -0.26135 0.26135h-0.99305c-0.1568 0 -0.26135 -0.10455 -0.26135 -0.26135v-0.9408c0 -0.1568 0.10455 -0.26135 0.26135 -0.26135h0.99305c0.1568 0 0.26135 0.10455 0.26135 0.26135v0.9408m1.46345 -1.46345c0 0.1568 -0.1045 0.26135 -0.2613 0.26135h-0.9931c-0.1568 0 -0.2613 -0.10455 -0.2613 -0.26135v-0.9408c0 -0.1568 0.1045 -0.26135 0.2613 -0.26135h0.9931c0.1568 0 0.2613 0.10455 0.2613 0.26135v0.9408m1.4635 1.46345c0 0.1568 -0.10455 0.26135 -0.26135 0.26135h-0.99305c-0.1568 0 -0.26135 -0.10455 -0.26135 -0.26135v-0.9408c0 -0.1568 0.10455 -0.26135 0.26135 -0.26135h0.99305c0.1568 0 0.26135 0.10455 0.26135 0.26135v0.9408m1.46345 -1.46345c0 0.1568 -0.10455 0.26135 -0.26135 0.26135h-0.99305c-0.1568 0 -0.26135 -0.10455 -0.26135 -0.26135v-0.9408c0 -0.1568 0.10455 -0.26135 0.26135 -0.26135h0.99305c0.1568 0 0.26135 0.10455 0.26135 0.26135v0.9408m1.46345 1.46345c0 0.1568 -0.1045 0.26135 -0.2613 0.26135h-0.9931c-0.1568 0 -0.2613 -0.10455 -0.2613 -0.26135v-0.9408c0 -0.1568 0.1045 -0.26135 0.2613 -0.26135h0.9931c0.1568 0 0.2613 0.10455 0.2613 0.26135v0.9408m1.4635 -1.46345c0 0.1568 -0.10455 0.26135 -0.26135 0.26135h-0.99305c-0.1568 0 -0.26135 -0.10455 -0.26135 -0.26135v-0.9408c0 -0.1568 0.10455 -0.26135 0.26135 -0.26135h0.99305c0.1568 0 0.26135 0.10455 0.26135 0.26135v0.9408" stroke-width="0.5"></path>
  </g>
  <path fill="#f15744" d="M17.14985 4.6066c-0.1045 -0.4704 -0.5749 -0.41815 -0.99305 -0.41815 -0.4704 0 -0.88855 -0.05225 -0.99305 0.41815l-0.41815 2.5088h2.8224l-0.41815 -2.5088" stroke-width="0.5"></path>
  <g fill="#3e4347">
    <path d="M17.82935 7.1154h-1.1499l-0.1568 -2.92695c-0.05225 -0.52265 -0.20905 -0.4704 -0.4181 -0.4704 -0.1568 0 -0.3659 -0.05225 -0.41815 0.4704l-0.1568 2.87465H14.432c-0.3136 0 -0.57495 0.2091 -0.57495 0.4704v0.4704h4.5472v-0.4704c0 -0.20905 -0.2613 -0.4181 -0.5749 -0.4181" stroke-width="0.5"></path>
    <path d="M3.2992 23.94525c0 3.3395 3.65865 5.4267 6.5856 3.75695 1.3584 -0.77495 2.1952 -2.20705 2.1952 -3.75695 0 -3.3395 -3.65865 -5.42665 -6.5856 -3.75695 -1.3584 0.77495 -2.1952 2.2071 -2.1952 3.75695" stroke-width="0.5"></path>
  </g>
  <path fill="#e8e8e8" d="M5.1808 23.94525c0 1.89105 2.09065 3.07295 3.7632 2.12745 0.77625 -0.43885 1.2544 -1.2498 1.2544 -2.12745 0 -1.89105 -2.09065 -3.07295 -3.7632 -2.1274 -0.7762 0.4388 -1.2544 1.24975 -1.2544 2.1274" stroke-width="0.5"></path>
  <g fill="#3e4347">
    <path d="M8.26455 22.7431c-0.10455 0.3136 -0.3659 0.6272 -0.57495 0.6272s-0.4704 -0.2613 -0.57495 -0.6272v-0.05225c-0.1045 -0.3136 0.1568 -0.57495 0.6272 -0.57495 0.3659 0 0.6272 0.26135 0.5227 0.6272m-1.35895 0.10455c0.26135 0.26135 0.36585 0.6272 0.20905 0.784 -0.10455 0.20905 -0.4704 0.26135 -0.83625 0.20905h-0.05225c-0.3659 -0.05225 -0.4704 -0.4181 -0.2091 -0.83625 0.26135 -0.36585 0.6272 -0.4704 0.88855 -0.1568m-0.6272 1.20215c0.36585 -0.05225 0.73175 0 0.83625 0.20905 0.10455 0.20905 0 0.57495 -0.20905 0.784l-0.05225 0.05225c-0.26135 0.26135 -0.6272 0.1568 -0.8363 -0.20905 -0.20905 -0.36585 -0.1045 -0.73175 0.26135 -0.83625m0.784 1.0976c0.10455 -0.3136 0.36585 -0.57495 0.57495 -0.57495s0.4704 0.26135 0.5749 0.57495v0.05225c0.10455 0.3136 -0.1568 0.57495 -0.6272 0.57495 -0.36585 0.05225 -0.6272 -0.26135 -0.52265 -0.6272m1.35895 -0.10455c-0.26135 -0.26135 -0.36585 -0.6272 -0.20905 -0.784 0.1045 -0.20905 0.4704 -0.26135 0.83625 -0.20905h0.05225c0.36585 0.05225 0.4704 0.41815 0.20905 0.83625 -0.20905 0.36585 -0.5749 0.4704 -0.8885 0.1568m0.6272 -1.20215c-0.3659 0.0523 -0.73175 0 -0.8363 -0.20905 -0.1045 -0.20905 0 -0.57495 0.2091 -0.784l0.05225 -0.05225c0.26135 -0.26135 0.6272 -0.1568 0.83625 0.20905 0.2091 0.36585 0.10455 0.73175 -0.2613 0.83625" stroke-width="0.5"></path>
  </g>
  <g fill="#e8e8e8">
    <path d="m9.04855 25.67005 -0.57495 0.3136 -2.1952 -3.7632 0.57495 -0.3136Z" stroke-width="0.5"></path>
    <path d="M5.44215 23.63165h4.3904v0.6272h-4.3904Z" stroke-width="0.5"></path>
    <path d="m8.4736 21.90685 0.57495 0.3136 -2.1952 3.7632 -0.57495 -0.3136Z" stroke-width="0.5"></path>
  </g>
  <path fill="#3e4347" d="M19.92 23.94525c0 3.3395 3.65865 5.4267 6.5856 3.75695 1.3584 -0.77495 2.1952 -2.20705 2.1952 -3.75695 0 -3.3395 -3.65865 -5.42665 -6.5856 -3.75695 -1.3584 0.77495 -2.1952 2.2071 -2.1952 3.75695" stroke-width="0.5"></path>
  <path fill="#e8e8e8" d="M21.8016 23.94525c0 1.89105 2.09065 3.07295 3.7632 2.12745 0.77625 -0.43885 1.2544 -1.2498 1.2544 -2.12745 0 -1.89105 -2.09065 -3.07295 -3.7632 -2.1274 -0.7762 0.4388 -1.2544 1.24975 -1.2544 2.1274" stroke-width="0.5"></path>
  <g fill="#3e4347">
    <path d="M24.9376 22.7431c-0.10455 0.3136 -0.36585 0.6272 -0.57495 0.6272s-0.52265 -0.3136 -0.6272 -0.6272v-0.05225c-0.1045 -0.3136 0.1568 -0.57495 0.6272 -0.57495 0.41815 0 0.6795 0.26135 0.57495 0.6272m-1.35895 0.10455c0.26135 0.26135 0.3659 0.6272 0.2091 0.784 -0.10455 0.20905 -0.4704 0.26135 -0.8363 0.20905h-0.05225c-0.36585 -0.05225 -0.4704 -0.4181 -0.20905 -0.83625 0.20905 -0.36585 0.5749 -0.4704 0.8885 -0.1568m-0.6272 1.20215c0.3659 -0.05225 0.73175 0 0.8363 0.20905 0.1045 0.20905 0 0.57495 -0.2091 0.784l-0.05225 0.05225c-0.26135 0.26135 -0.6272 0.1568 -0.83625 -0.20905 -0.20905 -0.36585 -0.10455 -0.73175 0.26135 -0.83625m0.784 1.0976c0.1045 -0.3136 0.36585 -0.57495 0.5749 -0.57495s0.4704 0.26135 0.57495 0.57495v0.05225c0.10455 0.3136 -0.1568 0.57495 -0.6272 0.57495 -0.36585 0.05225 -0.6272 -0.26135 -0.52265 -0.6272m1.3589 -0.10455c-0.2613 -0.26135 -0.36585 -0.6272 -0.20905 -0.784 0.10455 -0.20905 0.4704 -0.26135 0.83625 -0.20905h0.0523c0.36585 0.05225 0.4704 0.41815 0.20905 0.83625 -0.26135 0.36585 -0.6272 0.4704 -0.88855 0.1568m0.6272 -1.20215c-0.36585 0.0523 -0.7317 0 -0.83625 -0.20905 -0.10455 -0.20905 0 -0.57495 0.20905 -0.784l0.0523 -0.05225c0.2613 -0.26135 0.6272 -0.1568 0.83625 0.20905 0.20905 0.36585 0.10455 0.73175 -0.26135 0.83625" stroke-width="0.5"></path>
  </g>
  <g fill="#e8e8e8">
    <path d="m25.7216 25.67005 -0.57495 0.3136 -2.1952 -3.7632 0.57495 -0.3136Z" stroke-width="0.5"></path>
    <path d="M22.1152 23.63165h4.3904v0.6272h-4.3904Z" stroke-width="0.5"></path>
    <path d="m25.14665 21.90685 0.57495 0.3136 -2.1952 3.7632 -0.57495 -0.3136Z" stroke-width="0.5"></path>
  </g>
</svg>